<svg width="52" height="30" viewBox="0 0 52 30" fill="none" xmlns="http://www.w3.org/2000/svg">
<path fill-rule="evenodd" clip-rule="evenodd" d="M2.77968 0.0860088C1.72718 0.33693 0.772433 1.14424 0.29501 2.18704C0.0549252 2.71152 0.0127069 2.9363 0.0148433 3.67939C0.0195229 5.3252 -0.956991 4.21365 12.1474 17.4901C20.0508 25.4973 23.9478 29.376 24.2634 29.5491C25.0002 29.9533 25.8705 30.0953 26.636 29.9363C26.9857 29.8636 27.4812 29.6894 27.7369 29.5491C28.0525 29.376 31.9495 25.4973 39.853 17.4901C52.9584 4.21252 51.9816 5.32448 51.9846 3.67939C51.9859 2.93435 51.9432 2.70936 51.6964 2.16295C50.8424 0.272502 48.5667 -0.527194 46.7024 0.408048C46.4374 0.540919 42.7561 4.18885 36.1478 10.8671L26.0002 21.1221L15.8525 10.8671C9.21833 4.16271 5.56396 0.541743 5.29793 0.408769C4.52355 0.0217863 3.56433 -0.101101 2.77968 0.0860088Z" fill="black"/>
</svg>
