<svg width="9" height="29" viewBox="0 0 9 29" fill="none" xmlns="http://www.w3.org/2000/svg">
<path fill-rule="evenodd" clip-rule="evenodd" d="M8.10982 0.0922982C7.92157 0.250721 0.115059 13.8248 0.0466272 14.1128C-0.0205645 14.3954 -0.0154384 14.6438 0.063964 14.9506C0.160083 15.3221 7.83978 28.6623 8.07541 28.8671C8.28116 29.0459 8.42965 29.0445 8.64089 28.8617C8.91243 28.6268 9.0348 28.1654 8.97002 27.6207C8.93643 27.3381 8.90064 27.2737 5.242 20.9162L1.54789 14.497L5.24164 8.07798C8.26412 2.82555 8.94266 1.61911 8.97541 1.43937C9.02602 1.16164 8.99644 0.769009 8.90574 0.514229C8.74621 0.0661118 8.3749 -0.13074 8.10982 0.0922982Z" fill="black"/>
</svg>
