<svg width="37" height="30" viewBox="0 0 37 30" fill="none" xmlns="http://www.w3.org/2000/svg">
<path fill-rule="evenodd" clip-rule="evenodd" d="M24.4121 0.393314C24.0022 0.6096 18.4151 3.53001 11.9961 6.88307C5.5771 10.2361 0.252063 13.0602 0.162598 13.159L0 13.3384V18.7142C0 22.4366 0.024209 24.1439 0.0787695 24.2651C0.122057 24.3615 0.309008 24.5151 0.494297 24.6065C1.65727 25.1801 12.1257 29.9711 12.2785 29.9996C12.4238 30.0267 15.1935 28.5854 24.6064 23.5845C31.2838 20.037 36.804 17.0659 36.8735 16.9821C36.9913 16.8401 37 16.4792 37 11.7148V6.60006L36.8374 6.4119C36.6543 6.19994 25.4834 0 25.2847 0C25.2145 0 24.8218 0.176955 24.4121 0.393314ZM30.199 4.06498C32.8246 5.51519 34.9736 6.72135 34.9747 6.7453C34.9769 6.79635 12.4282 18.0397 12.3213 18.0408C12.1678 18.0425 2.10199 13.5144 2.15156 13.4659C2.30267 13.3184 25.203 1.39381 25.3049 1.40956C25.3711 1.41981 27.5735 2.61477 30.199 4.06498ZM35.7715 12.0385V16.2399L34.5249 16.8995C33.4075 17.4906 16.9947 26.2081 14.1308 27.7315C13.4965 28.0689 12.9681 28.345 12.9565 28.345C12.945 28.345 12.9355 26.3537 12.9355 23.92V19.4949L17.7593 17.0258C20.4123 15.6678 24.648 13.5 27.1719 12.2083C29.6958 10.9167 32.6388 9.40541 33.7119 8.84986C34.7851 8.29432 35.6874 7.83919 35.7173 7.83838C35.7471 7.83765 35.7715 9.72768 35.7715 12.0385ZM6.57104 17.0238L11.707 19.4357V23.9224V28.4092L10.9302 28.0508C10.5029 27.8536 8.15337 26.771 5.70898 25.645L1.26465 23.5978L1.246 19.0811C1.22996 15.1861 1.24167 14.5676 1.33121 14.5882C1.38829 14.6013 3.74625 15.6973 6.57104 17.0238Z" fill="black"/>
</svg>
