<svg width="30" height="30" viewBox="0 0 30 30" fill="none" xmlns="http://www.w3.org/2000/svg">
<path fill-rule="evenodd" clip-rule="evenodd" d="M16.3455 0.0354984C19.2444 0.319318 21.9237 1.38728 24.2728 3.19531C25.4168 4.07576 26.9024 5.73043 27.7609 7.08022C28.1317 7.66318 28.8534 9.14038 29.112 9.84535C29.4011 10.6337 29.7092 11.8383 29.8608 12.773C30.0464 13.9171 30.0464 16.0893 29.8608 17.2334C29.5985 18.8508 29.1834 20.1582 28.473 21.6057C27.6968 23.1871 26.8897 24.3081 25.5973 25.5998C24.3048 26.8915 23.1832 27.6981 21.6009 28.4739C20.1526 29.1839 18.8444 29.5987 17.2261 29.8609C16.0814 30.0464 13.9079 30.0464 12.7632 29.8609C11.1449 29.5987 9.83671 29.1839 8.38838 28.4739C6.80611 27.6981 5.68451 26.8915 4.39203 25.5998C3.0996 24.3081 2.29252 23.1871 1.51633 21.6057C1.00081 20.5553 0.741488 19.8669 0.463731 18.8113C0.0938383 17.4054 -3.32711e-07 16.6348 -3.32711e-07 15.0032C-3.32711e-07 13.3717 0.0938383 12.601 0.463731 11.1952C0.741488 10.1396 1.00081 9.45114 1.51633 8.40072C2.29252 6.81935 3.0996 5.69839 4.39203 4.40665C5.68451 3.11496 6.80611 2.30834 8.38838 1.53259C9.8353 0.823221 11.1694 0.400015 12.7338 0.15405C13.597 0.0183613 15.5244 -0.0449054 16.3455 0.0354984ZM13.5977 2.38922C10.7343 2.70444 8.11303 3.97317 6.03567 6.04935C3.59833 8.48529 2.31061 11.5805 2.31061 15.0032C2.31061 18.4259 3.59833 21.5212 6.03567 23.9571C8.473 26.393 11.57 27.68 14.9947 27.68C18.4193 27.68 21.5163 26.393 23.9536 23.9571C26.391 21.5212 27.6787 18.4259 27.6787 15.0032C27.6787 11.5805 26.391 8.48529 23.9536 6.04935C21.9048 4.00164 19.2561 2.70831 16.4627 2.39156C15.8164 2.31832 14.2535 2.31703 13.5977 2.38922ZM15.5006 7.07512C15.7827 7.20312 16.0124 7.48253 16.1079 7.81383C16.1567 7.98297 16.1706 9.07377 16.1577 11.7166C16.1402 15.2894 16.1366 15.3908 16.0185 15.6195C15.9204 15.8097 15.4521 16.1917 13.5522 17.6321C12.2624 18.61 11.0892 19.4807 10.9451 19.567C9.96326 20.1554 8.80267 19.1082 9.29964 18.0823C9.41861 17.8366 9.65473 17.6419 11.6261 16.164L13.8202 14.5192V11.2486C13.8202 8.95967 13.8403 7.91818 13.887 7.77856C14.0536 7.28152 14.4841 6.96543 14.9947 6.96543C15.14 6.96543 15.3677 7.01478 15.5006 7.07512Z" fill="black"/>
</svg>
