<svg width="30" height="30" viewBox="0 0 30 30" fill="none" xmlns="http://www.w3.org/2000/svg">
<path fill-rule="evenodd" clip-rule="evenodd" d="M2.92099 0.0937694C2.62596 0.276921 2.60562 0.362138 2.58505 1.50079L2.56576 2.56576L1.50079 2.58505C0.354871 2.60574 0.270767 2.62637 0.0908975 2.93084C-0.0286055 3.13316 -0.0295432 3.35153 0.0879671 3.57882C0.240057 3.87285 0.45685 3.92297 1.57674 3.92297H2.57497V7.17575V10.4285H1.54638C0.409084 10.4285 0.245742 10.4676 0.0850953 10.7782C-0.0463639 11.0325 -0.0252062 11.2732 0.146459 11.4773C0.35745 11.728 0.59839 11.7758 1.65188 11.7762L2.57497 11.7765V15V18.2235L1.65188 18.2238C0.59839 18.2242 0.35745 18.272 0.146459 18.5227C-0.0252062 18.7268 -0.0463639 18.9675 0.0850953 19.2218C0.245742 19.5324 0.409084 19.5715 1.54638 19.5715H2.57497V22.8243V26.077H1.57674C0.45685 26.077 0.240057 26.1271 0.0879671 26.4212C-0.0295432 26.6485 -0.0286055 26.8668 0.0908975 27.0692C0.270767 27.3736 0.354871 27.3943 1.50079 27.415L2.56576 27.4342L2.58505 28.4992C2.60574 29.6451 2.62637 29.7292 2.93084 29.9091C3.13316 30.0286 3.35153 30.0295 3.57882 29.912C3.87285 29.7599 3.92297 29.5432 3.92297 28.4233V27.425H7.17575H10.4285V28.4536C10.4285 29.5909 10.4676 29.7543 10.7782 29.9149C11.0325 30.0464 11.2732 30.0252 11.4773 29.8535C11.728 29.6426 11.7758 29.4016 11.7762 28.3481L11.7765 27.425H15H18.2235L18.2238 28.3481C18.2242 29.4016 18.272 29.6426 18.5227 29.8535C18.7268 30.0252 18.9675 30.0464 19.2218 29.9149C19.5324 29.7543 19.5715 29.5909 19.5715 28.4536V27.425H22.8243H26.077V28.4233C26.077 29.5432 26.1271 29.7599 26.4212 29.912C26.6485 30.0295 26.8668 30.0286 27.0692 29.9091C27.3736 29.7292 27.3943 29.6451 27.415 28.4992L27.4342 27.4342L28.4992 27.415C29.6451 27.3943 29.7292 27.3736 29.9091 27.0692C30.0286 26.8668 30.0295 26.6485 29.912 26.4212C29.7599 26.1271 29.5432 26.077 28.4233 26.077H27.425V22.8243V19.5715H28.4536C29.5909 19.5715 29.7543 19.5324 29.9149 19.2218C30.0464 18.9675 30.0252 18.7268 29.8535 18.5227C29.6426 18.272 29.4016 18.2242 28.3481 18.2238L27.425 18.2235V15V11.7765L28.3481 11.7762C29.4016 11.7758 29.6426 11.728 29.8535 11.4773C30.0252 11.2732 30.0464 11.0325 29.9149 10.7782C29.7543 10.4676 29.5909 10.4285 28.4536 10.4285H27.425V7.17575V3.92297H28.4233C29.5432 3.92297 29.7599 3.87285 29.912 3.57882C30.0295 3.35153 30.0286 3.13316 29.9091 2.93084C29.7292 2.62637 29.6451 2.60574 28.4992 2.58505L27.4342 2.56576L27.415 1.50079C27.3943 0.354871 27.3736 0.270767 27.0692 0.0908975C26.8668 -0.0286055 26.6485 -0.0295432 26.4212 0.0879671C26.1271 0.240057 26.077 0.45685 26.077 1.57674V2.57497H22.8243H19.5715V1.54638C19.5715 0.409084 19.5324 0.245742 19.2218 0.0850953C18.9675 -0.0463639 18.7268 -0.0252062 18.5227 0.146459C18.272 0.35745 18.2242 0.59839 18.2238 1.65188L18.2235 2.57497H15H11.7765L11.7762 1.65188C11.7758 0.59839 11.728 0.35745 11.4773 0.146459C11.2732 -0.0252062 11.0325 -0.0463639 10.7782 0.0850953C10.4676 0.245742 10.4285 0.409084 10.4285 1.54638V2.57497H7.17575H3.92297V1.57674C3.92297 0.846597 3.90058 0.524953 3.83968 0.379135C3.69621 0.035864 3.2417 -0.105324 2.92099 0.0937694ZM10.4285 7.17575V10.4285H7.17575H3.92297V7.17575V3.92297H7.17575H10.4285V7.17575ZM18.2235 7.17575V10.4285H15H11.7765V7.17575V3.92297H15H18.2235V7.17575ZM26.077 7.17575V10.4285H22.8243H19.5715V7.17575V3.92297H22.8243H26.077V7.17575ZM10.4285 15V18.2235H7.17575H3.92297V15V11.7765H7.17575H10.4285V15ZM18.2235 15V18.2235H15H11.7765V15V11.7765H15H18.2235V15ZM26.077 15V18.2235H22.8243H19.5715V15V11.7765H22.8243H26.077V15ZM10.4285 22.8243V26.077H7.17575H3.92297V22.8243V19.5715H7.17575H10.4285V22.8243ZM18.2235 22.8243V26.077H15H11.7765V22.8243V19.5715H15H18.2235V22.8243ZM26.077 22.8243V26.077H22.8243H19.5715V22.8243V19.5715H22.8243H26.077V22.8243Z" fill="black"/>
</svg>
