<svg width="39" height="30" viewBox="0 0 39 30" fill="none" xmlns="http://www.w3.org/2000/svg">
<path fill-rule="evenodd" clip-rule="evenodd" d="M0 15V30H19.5H39V15V0H19.5H0V15ZM12.2637 6.54337V10.7908H13.4062H14.5488V6.54337V2.29592H19.5H24.4512V3.6352V4.97449H25.5938H26.7363V3.6352V2.29592H31.7256H36.7148V5.20408V8.11224H30.583H24.4512V10.9821V13.852H22.7373H21.0234V15V16.148H22.7373H24.4512V18.8265V21.5051H25.5938H26.7363V18.8265V16.148H28.6787H30.6211V21.926V27.7041H28.6787H26.7363V26.1735V24.6429H25.5938H24.4512V26.1735V27.7041H19.5H14.5488V21.926V16.148H16.2627H17.9766V15V13.852H13.3682H8.75977V15V16.148H10.5117H12.2637V19.0179V21.8878H7.27441H2.28516V19.0179V16.148H3.99902H5.71289V15V13.852H3.99902H2.28516V8.07398V2.29592H7.27441H12.2637V6.54337ZM36.7148 12.1301V13.852H31.7256H26.7363V12.1301V10.4082H31.7256H36.7148V12.1301ZM36.7148 21.926V27.7041H34.8105H32.9062V21.926V16.148H34.8105H36.7148V21.926ZM12.2461 25.963L12.2666 27.7041H7.27586H2.28516V25.9433V24.1826L7.25537 24.2023L12.2256 24.2219L12.2461 25.963Z" fill="black"/>
</svg>
