<svg width="421" height="312" viewBox="0 0 421 312" fill="none" xmlns="http://www.w3.org/2000/svg">
<path fill-rule="evenodd" clip-rule="evenodd" d="M0 155.536V311.072L49.25 310.786C97.527 310.506 98.579 310.457 102.5 308.342C110.482 304.035 114.649 297.56 115.847 287.604C116.8 279.691 122.824 269.05 130.979 260.875C137.216 254.622 142.763 251.381 148.908 250.399L153 249.744V280.372V311H287H421V155.5V0H210.5H0V155.536ZM274.5 67V103.5L247.25 103.766L220 104.032V119.016V134H284H348V119V104H326.488H304.975L305.238 67.25L305.5 30.5H348H390.5L390.756 106.75L391.012 183H369.506H348V197.98V212.96L369.25 213.23L390.5 213.5V247V280.5H329.5H268.5V247V213.5L289.75 213.23L311 212.96V197.98V183H274.5H238V232V281H210.5H183V250.5V220H164.71C143.97 220 138.842 220.909 127.016 226.685C112.812 233.623 96.964 252.101 88.48 271.618C86.66 275.804 84.765 279.635 84.269 280.131C83.764 280.636 71.726 280.916 56.933 280.767L30.5 280.5V207.5V134.5L97.75 134.243L165 133.986V119V104.014L97.75 103.757L30.5 103.5L30.237 68.005C30.092 48.483 30.191 31.944 30.457 31.251C30.843 30.247 55.556 30.043 152.72 30.246L274.5 30.5V67Z" fill="black"/>
</svg>
