<svg width="212" height="212" viewBox="0 0 212 212" fill="none" xmlns="http://www.w3.org/2000/svg">
<path fill-rule="evenodd" clip-rule="evenodd" d="M92.9794 1.3457C91.9111 2.36181 18.7251 103.341 2.61108 126.032L0 129.709V169.644V209.579L1.2103 210.79L2.42061 212H106H209.579L210.79 210.79L212 209.579V169.644V129.709L209.389 126.032C193.275 103.341 120.089 2.36181 119.021 1.3457L117.606 0H106H94.3942L92.9794 1.3457ZM159.828 69.3638L204.754 131.641L204.871 136.418L204.987 141.195H106H7.01298L7.12933 136.418L7.24609 131.641L52.1719 69.3638L97.0977 7.08668H106H114.902L159.828 69.3638ZM96.2074 20.8066C94.9064 22.1971 19.046 127.158 17.9028 129.15C17.1256 130.505 17.4428 132.131 18.716 133.317C19.6083 134.148 20.0058 134.156 59.9289 134.156H100.241L101.257 133.14L102.273 132.124V76.6927V21.2617L101.315 20.3611C99.835 18.9707 97.7564 19.1516 96.2074 20.8066ZM110.627 20.4191L109.727 21.3776V76.7506V132.124L110.743 133.14L111.759 134.156H152.071C191.994 134.156 192.392 134.148 193.284 133.317C194.557 132.131 194.874 130.505 194.097 129.15C192.954 127.158 117.094 22.1971 115.793 20.8066C114.203 19.1082 112.013 18.9438 110.627 20.4191ZM95.0957 126.98C95.0174 127.058 79.9062 127.075 61.5152 127.016L28.0772 126.91L61.5525 80.5579L95.0273 34.2057L95.1325 80.5215C95.1905 105.995 95.1739 126.901 95.0957 126.98ZM150.592 80.7422C168.576 105.679 183.425 126.315 183.591 126.6C183.831 127.012 177.065 127.117 150.329 127.117H116.766V80.6536C116.766 41.3913 116.853 34.2835 117.33 34.7962C117.641 35.1295 132.609 55.8053 150.592 80.7422ZM14.0781 169.559V190.883H10.5586H7.03906V169.559V148.234H10.5586H14.0781V169.559ZM59.6685 169.398C77.5216 181.038 92.2068 190.634 92.3016 190.722C92.3964 190.81 89.3178 190.883 85.4604 190.883H78.4466L49.7819 172.195L21.1172 153.507V151.147C21.1172 149.849 21.2414 148.662 21.3934 148.511C21.5449 148.359 22.9155 148.234 24.4384 148.234H27.208L59.6685 169.398ZM95.2344 166.083C95.2344 180.195 95.1259 183.89 94.7168 183.729C94.1056 183.489 41.3814 149.132 40.8059 148.599C40.579 148.389 52.0108 148.234 67.8234 148.234H95.2344V166.083ZM109.52 169.559V190.676H106H102.48L102.373 169.973C102.314 158.586 102.357 149.029 102.47 148.735C102.62 148.344 103.593 148.233 106.097 148.321L109.52 148.441V169.559ZM171.194 148.599C170.619 149.132 117.894 183.489 117.283 183.729C116.874 183.89 116.766 180.195 116.766 166.083V148.234H144.177C159.989 148.234 171.421 148.389 171.194 148.599ZM190.676 151.041V153.64L162.115 172.262L133.555 190.883H126.54C122.683 190.883 119.604 190.81 119.698 190.722C119.793 190.634 134.49 181.03 152.357 169.381L184.842 148.202L187.759 148.321L190.676 148.441V151.041ZM204.961 169.559V190.883H201.441H197.922V169.559V148.234H201.441H204.961V169.559ZM43.2762 176.381C54.8869 183.946 64.5639 190.304 64.7801 190.509C65.014 190.732 56.257 190.883 43.1453 190.883H21.1172V176.553C21.1172 165.165 21.2248 162.265 21.6414 162.425C21.9296 162.536 31.665 168.816 43.2762 176.381ZM190.883 176.598V190.883H168.855C155.733 190.883 146.986 190.732 147.22 190.509C147.9 189.863 190.246 162.328 190.572 162.32C190.743 162.316 190.883 168.741 190.883 176.598ZM204.961 201.441V204.961H106H7.03906V201.441V197.922H106H204.961V201.441Z" fill="black"/>
</svg>
