<svg width="33" height="30" viewBox="0 0 33 30" fill="none" xmlns="http://www.w3.org/2000/svg">
<path fill-rule="evenodd" clip-rule="evenodd" d="M19.6136 0.0497871C19.1483 0.148354 18.5385 0.481056 18.2066 0.817513C18.048 0.978192 16.705 2.82374 15.2221 4.91867C13.7392 7.0136 12.2405 9.08992 11.8918 9.53261C11.543 9.97538 10.6404 10.9712 9.88594 11.7457C9.13151 12.5201 8.47474 13.2307 8.42641 13.3246C8.36312 13.4478 8.33861 15.2851 8.33861 19.9036V26.3116L8.56177 26.6167C8.82248 26.9731 10.4852 28.6199 10.9371 28.9694C11.3204 29.2657 12.0393 29.6345 12.6049 29.8249C12.9998 29.9578 13.4435 29.9703 18.5776 29.9937C22.4446 30.0113 24.2811 29.9923 24.6434 29.9308C25.4377 29.7959 26.1857 29.3958 26.798 28.7782C27.0851 28.4886 27.3912 28.1109 27.4781 27.9388C27.5652 27.7667 28.7775 25.0385 30.1723 21.8761C31.7363 18.3301 32.7676 15.893 32.863 15.5173C32.9955 14.996 33.0141 14.7083 32.9922 13.5225C32.9668 12.1506 32.9641 12.1316 32.7189 11.6095C32.4372 11.0096 31.8778 10.4002 31.3678 10.1372C30.6348 9.75931 30.5389 9.75274 25.6945 9.7518C23.1882 9.75126 21.1374 9.73459 21.1374 9.71465C21.1374 9.69478 21.5926 8.52684 22.149 7.11921C23.3164 4.16573 23.4041 3.81105 23.2076 2.83938C23.0036 1.8304 22.5069 1.01277 21.8001 0.52236C21.176 0.0892921 20.3104 -0.0977501 19.6136 0.0497871ZM2.00018 12.1284C1.22132 12.3847 0.618453 12.9087 0.216028 13.679L0 14.0925V20.3898V26.6871L0.2265 27.1382C0.496205 27.6752 1.137 28.3113 1.64825 28.5494C1.95356 28.6916 2.15648 28.721 2.83125 28.721C3.57777 28.721 3.6831 28.702 4.09391 28.4922C4.64674 28.2098 5.18002 27.6471 5.45461 27.0562L5.6625 26.6089V20.3882V14.1674L5.4104 13.651C4.92474 12.6561 4.05124 12.0863 2.9476 12.0443C2.56821 12.0299 2.20007 12.0626 2.00018 12.1284Z" fill="black"/>
</svg>
