<svg width="30" height="39" viewBox="0 0 30 39" fill="none" xmlns="http://www.w3.org/2000/svg">
<path fill-rule="evenodd" clip-rule="evenodd" d="M13.4037 0.0818661C10.6967 0.363435 7.77797 1.55736 5.66726 3.24632C5.05254 3.73822 3.87654 4.90015 3.36816 5.51799C0.899493 8.51789 -0.337367 12.6236 0.0797682 16.434C0.341654 18.8265 1.22898 21.2947 2.49929 23.164C2.74502 23.5255 5.51155 27.2365 8.64722 31.4107L14.3483 39H15.0031H15.6581L21.3591 31.4103C24.4947 27.236 27.2611 23.5249 27.5069 23.1636C27.7525 22.8022 28.1689 22.0743 28.4321 21.5458C30.5049 17.3839 30.5233 12.5616 28.4824 8.41291C25.6922 2.74123 19.6945 -0.572538 13.4037 0.0818661ZM16.0365 10.0888C17.8774 10.4722 19.479 12.0661 19.8642 13.898C20.0984 15.0121 19.9572 16.0723 19.4328 17.1358C18.9848 18.0444 18.1361 18.8889 17.2231 19.3347C15.749 20.0546 14.2571 20.0546 12.783 19.3347C11.87 18.8889 11.0213 18.0444 10.5734 17.1358C9.85001 15.6688 9.85001 14.1842 10.5734 12.7172C11.1991 11.4481 12.5571 10.3868 13.9313 10.0931C14.5875 9.95285 15.3757 9.95125 16.0365 10.0888Z" fill="black"/>
</svg>
