<svg width="30" height="30" viewBox="0 0 30 30" fill="none" xmlns="http://www.w3.org/2000/svg">
<path fill-rule="evenodd" clip-rule="evenodd" d="M5.1931 0.0792151C4.4658 0.236984 4.32568 0.346407 2.42485 2.24216C0.766048 3.89653 0.63776 4.03957 0.443151 4.4511C0.12249 5.12929 0.0424577 5.49775 0.00773757 6.45662C-0.0273356 7.42489 0.051991 8.06464 0.345347 9.17836C2.1126 15.8879 10.034 24.7123 17.6157 28.4176C19.8641 29.5163 21.5616 29.9943 23.2357 29.9999C24.2604 30.0033 24.7787 29.8999 25.4888 29.5507C25.946 29.3257 26.0663 29.2191 27.7169 27.5749C29.5654 25.7338 29.676 25.5945 29.9083 24.8143C30.0306 24.4035 30.0306 23.633 29.9083 23.2221C29.6977 22.5143 29.6118 22.4115 27.2739 20.0669C26.0401 18.8295 24.8716 17.7043 24.6774 17.5665C23.5098 16.7378 22.0107 16.8527 21.0341 17.8458C20.7385 18.1463 20.6248 18.3223 20.4206 18.7949C20.2828 19.114 20.0984 19.4719 20.0109 19.59C19.4486 20.3497 18.3628 20.8334 17.4392 20.7357C16.0622 20.59 14.0078 19.3496 12.2675 17.6131C10.1607 15.5109 8.91804 13.0921 9.2211 11.6833C9.36222 11.0273 9.82411 10.3408 10.3704 9.97512C10.5037 9.88588 10.785 9.73973 10.9954 9.65043C11.6065 9.39081 11.7569 9.30567 12.0406 9.05861C13.0198 8.20575 13.2342 6.60952 12.5214 5.47786C12.3116 5.14483 8.25382 1.05129 7.75874 0.673269C7.36405 0.371871 6.84601 0.139765 6.3797 0.0552769C5.93793 -0.0247516 5.64511 -0.0188257 5.1931 0.0792151Z" fill="black"/>
</svg>
