<svg width="30" height="30" viewBox="0 0 30 30" fill="none" xmlns="http://www.w3.org/2000/svg">
<path fill-rule="evenodd" clip-rule="evenodd" d="M25.6176 0.520793C23.6646 0.803528 22.0122 1.06402 21.9457 1.09964C21.8052 1.17487 21.7523 1.28872 21.7523 1.51553C21.7523 1.73876 21.9194 1.87191 22.1995 1.87191C22.3275 1.87191 23.9071 1.66065 25.7096 1.40245C27.5121 1.14424 29.0213 0.932983 29.0631 0.932983C29.1252 0.932983 29.1394 2.13035 29.1394 7.38095V13.8289L23.4085 13.8647C20.2565 13.8843 16.9059 13.9125 15.9628 13.9275L14.2479 13.9547V8.53707V3.11939L14.5264 3.08013C14.6796 3.05854 16.0375 2.84863 17.5441 2.61366C20.5305 2.1479 20.5211 2.15054 20.5211 1.77479C20.5211 1.53759 20.3475 1.34376 20.1352 1.34376C19.9706 1.34376 14.4704 2.18516 13.9715 2.28662C13.7489 2.33193 13.6254 2.39689 13.5171 2.52564L13.3685 2.70245V8.55837C13.3685 14.3688 13.3694 14.4154 13.4884 14.5669C13.5544 14.6508 13.6929 14.742 13.7962 14.7695C13.9 14.7971 17.4477 14.7956 21.723 14.766C30.1249 14.708 29.7274 14.7263 29.9077 14.3892C30.0334 14.1541 30.0294 0.556062 29.9036 0.320684C29.8006 0.128028 29.5577 -0.00829253 29.3328 0.000392558C29.2425 0.00385486 27.5707 0.238 25.6176 0.520793ZM6.65564 3.2769C0.186199 4.14089 0.518442 4.09148 0.30539 4.22123C0.18702 4.29329 0.104766 4.40649 0.0639608 4.55361C-0.0202871 4.85735 -0.0218114 14.1387 0.0623779 14.4421C0.0955611 14.5616 0.1913 14.7135 0.275138 14.7795C0.424052 14.8967 0.490653 14.8994 3.13124 14.8922C4.61822 14.8882 7.31227 14.8684 9.11801 14.8482C12.1581 14.8142 12.4128 14.8036 12.558 14.7049C12.6443 14.6463 12.7432 14.517 12.7778 14.4175C12.8211 14.2933 12.8409 12.4781 12.8409 8.63542C12.8409 3.51498 12.8325 3.02016 12.7432 2.86893C12.6173 2.65556 12.4334 2.5747 12.0906 2.58197C11.9389 2.5852 9.49322 2.89792 6.65564 3.2769ZM11.9614 8.69886V13.9413L7.90647 13.9803C5.67621 14.0017 3.18307 14.0193 2.36615 14.0193H0.88082V9.49888C0.88082 5.93453 0.896356 4.97249 0.954163 4.95024C1.00716 4.92988 7.98913 3.98221 11.9175 3.46216C11.9416 3.45899 11.9614 5.81547 11.9614 8.69886ZM0.451959 15.281C0.355282 15.3133 0.220966 15.4142 0.153485 15.5053C0.031188 15.6704 0.0307189 15.6891 0.0307189 20.6166C0.0307189 26.0278 0.0149481 25.7842 0.376329 25.9529C0.541659 26.0302 2.53946 26.3107 9.62156 27.2512C10.9626 27.4294 12.1428 27.5751 12.2442 27.5751C12.3651 27.5751 12.4945 27.5161 12.6201 27.4038L12.8115 27.2326L12.8271 21.5022C12.8439 15.2801 12.8538 15.4862 12.5304 15.3192C12.3591 15.2308 0.712734 15.1939 0.451959 15.281ZM13.7424 15.3942C13.3416 15.5698 13.3685 15.1228 13.3685 21.6015V27.4558L13.5318 27.6388L13.6951 27.8217L16.6537 28.2277C22.8577 29.0789 25.1922 29.4084 27.2762 29.7267C29.6294 30.0861 29.6592 30.0864 29.884 29.7551C29.9818 29.6108 29.9895 29.3993 29.9895 26.8217V24.0437L29.851 23.9316C29.6716 23.7861 29.4048 23.7884 29.2566 23.9367C29.143 24.0504 29.1394 24.1323 29.1394 26.5775C29.1394 28.0307 29.117 29.1008 29.0866 29.1008C29.0577 29.1008 28.075 28.9564 26.9028 28.7799C24.9778 28.49 22.1661 28.0959 16.2999 27.2938L14.2772 27.0172L14.2623 21.6037L14.2473 16.1901L21.6787 16.205L29.11 16.2199L29.1252 19.3068C29.14 22.3113 29.1435 22.3965 29.2579 22.5002C29.4192 22.6463 29.703 22.6357 29.8608 22.4778L29.9895 22.349V19.0733C29.9895 15.5893 29.9913 15.6135 29.7075 15.4249C29.5201 15.3005 14.0243 15.2707 13.7424 15.3942ZM11.9614 21.4097V26.6874L11.7709 26.6571C11.6661 26.6404 9.17956 26.3048 6.24525 25.9112L0.910134 25.1955L0.895125 20.6637L0.880116 16.1319H6.42078H11.9614V21.4097Z" fill="black"/>
</svg>
