<svg width="29" height="30" viewBox="0 0 29 30" fill="none" xmlns="http://www.w3.org/2000/svg">
<path fill-rule="evenodd" clip-rule="evenodd" d="M2.12878 0.102482C2.02022 0.158791 1.87776 0.27932 1.8122 0.370317L1.69299 0.535788V10.6914C1.69299 20.5961 1.6957 20.8502 1.80265 20.9705C1.96272 21.1505 2.25685 21.1355 2.40829 20.9394L2.52761 20.785V10.8319V0.878741H14.5H26.4724V2.66312C26.4724 3.84602 26.4939 4.4956 26.5363 4.59029C26.679 4.90898 27.1439 4.90019 27.2757 4.57628C27.322 4.46249 27.3365 3.83618 27.3243 2.47485C27.3078 0.620398 27.3018 0.528287 27.1878 0.3702C27.1222 0.27932 26.9798 0.158791 26.8712 0.102482C26.6851 0.00585944 25.9764 0 14.5 0C3.0236 0 2.31487 0.00585944 2.12878 0.102482ZM4.05294 1.95676C3.83646 2.05438 3.70781 2.20005 3.59465 2.47567C3.51596 2.66745 3.50612 4.03815 3.50612 14.8223V26.9533H3.01687H2.52761V24.8107C2.52761 22.6866 2.51195 22.4915 2.33191 22.3691C2.2028 22.2814 1.91212 22.3245 1.80265 22.4476C1.69961 22.5634 1.69202 22.7025 1.67659 24.7568L1.66024 26.9427L1.06151 26.9626C0.493166 26.9816 0.454025 26.9911 0.290613 27.1506C0.0123705 27.4221 -0.0150278 27.5571 0.00523313 28.5536C0.0259546 29.572 0.0671097 29.6938 0.459551 29.8975C0.645814 29.9943 1.43444 30 14.5 30C27.5656 30 28.3542 29.9943 28.5404 29.8975C28.9329 29.6938 28.974 29.572 28.9948 28.5536C29.015 27.5571 28.9876 27.4221 28.7094 27.1506C28.5459 26.9911 28.507 26.9816 27.937 26.9626L27.3367 26.9426L27.3219 16.6009L27.307 6.25906L27.1711 6.14708C26.9751 5.98548 26.7358 6.003 26.5917 6.18945L26.4724 6.34384V16.6486V26.9533H25.9831H25.4939V14.8073V2.66142L25.3644 2.40337C25.2931 2.26151 25.1618 2.09112 25.0724 2.02479C24.9099 1.9042 24.9072 1.90414 14.5677 1.89155C6.0723 1.88117 4.19476 1.89283 4.05294 1.95676ZM24.6305 14.8535V26.9533H14.5H4.36952V14.8535V2.75376H14.5H24.6305V14.8535ZM5.56491 3.63614C5.12061 3.87491 5.14657 3.54244 5.14657 8.99407C5.14657 13.5652 5.15279 13.869 5.25012 14.0504C5.30705 14.1566 5.43655 14.2949 5.53792 14.3578C5.71583 14.4683 5.8553 14.4722 9.60744 14.4722C13.3572 14.4722 13.4991 14.4683 13.6767 14.358C13.7778 14.2952 13.9073 14.1712 13.9645 14.0825C14.0625 13.9302 14.0683 13.6445 14.0683 8.99665V4.07214L13.9399 3.88891C13.669 3.50225 13.8209 3.5152 9.59874 3.51807C5.91251 3.52059 5.77224 3.52469 5.56491 3.63614ZM15.3759 3.61293C15.272 3.66508 15.1296 3.78971 15.0594 3.88991L14.9317 4.07214V8.99665C14.9317 13.6445 14.9375 13.9302 15.0355 14.0825C15.0927 14.1712 15.2222 14.2952 15.3233 14.358C15.5009 14.4683 15.6428 14.4722 19.3926 14.4722C23.1447 14.4722 23.2842 14.4683 23.4621 14.3578C23.5634 14.2949 23.693 14.1566 23.7499 14.0504C23.8472 13.869 23.8534 13.5652 23.8534 8.99407C23.8534 3.52821 23.881 3.87116 23.4228 3.63327C23.2024 3.51877 23.0901 3.51555 19.3805 3.51684C15.9835 3.51801 15.5441 3.52856 15.3759 3.61293ZM13.2337 9.02337V13.6523H9.60744H5.98118V9.02337V4.39441H9.60744H13.2337V9.02337ZM23.0188 9.02337V13.6523H19.3926H15.7663V9.02337V4.39441H19.3926H23.0188V9.02337ZM5.5382 15.5827C5.43707 15.6459 5.30756 15.7702 5.25041 15.8589C5.15244 16.0112 5.14657 16.2962 5.14657 20.9258C5.14657 25.789 5.14761 25.8328 5.26526 25.9932C5.33053 26.0822 5.45543 26.2093 5.54287 26.2758C5.69977 26.395 5.75267 26.3966 9.59725 26.3966C13.3766 26.3966 13.4983 26.3932 13.681 26.2807C13.7845 26.217 13.9205 26.057 13.9832 25.9253C14.0938 25.6927 14.0971 25.549 14.0971 20.9269C14.0971 15.7727 14.1076 15.9492 13.7833 15.6445L13.6274 15.4981L9.67478 15.4829C5.83619 15.4683 5.71687 15.4712 5.5382 15.5827ZM15.3922 15.5247C15.2346 15.591 15.0383 15.8158 14.9643 16.0146C14.9227 16.1265 14.9029 17.7082 14.9029 20.9326C14.9029 25.549 14.9062 25.6927 15.0168 25.9253C15.0795 26.057 15.2155 26.217 15.319 26.2807C15.5017 26.3932 15.6234 26.3966 19.4028 26.3966C23.2473 26.3966 23.3002 26.395 23.4571 26.2758C23.5446 26.2093 23.6695 26.0822 23.7347 25.9932C23.8524 25.8328 23.8534 25.789 23.8534 20.9258C23.8534 16.2962 23.8476 16.0112 23.7496 15.8589C23.6924 15.7702 23.5629 15.6462 23.4618 15.5834C23.2841 15.4731 23.1456 15.4693 19.3926 15.4727C17.2557 15.4746 15.4555 15.498 15.3922 15.5247ZM13.2337 20.918V25.547H9.60744H5.98118V20.918V16.2891H9.60744H13.2337V20.918ZM23.0188 20.918V25.547H19.3926H15.7663V20.918V16.2891H19.3926H23.0188V20.918ZM28.1867 28.4621L28.203 29.1213H14.5019H0.800822V28.4865C0.800822 28.1373 0.818147 27.8341 0.839329 27.8126C0.860511 27.791 7.01864 27.78 14.5241 27.7881L28.1704 27.8029L28.1867 28.4621Z" fill="black"/>
</svg>
