<svg width="30" height="30" viewBox="0 0 30 30" fill="none" xmlns="http://www.w3.org/2000/svg">
<path fill-rule="evenodd" clip-rule="evenodd" d="M12.2635 0.181976C2.93188 2.0138 -2.37437 11.5941 1.04193 20.4422C2.93571 25.3469 7.47469 28.9927 12.7187 29.8211C20.7983 31.0973 28.5413 25.406 29.8266 17.2466C30.5853 12.4287 28.8193 7.35356 25.2179 4.00244C23.2352 2.15749 21.3027 1.09479 18.6251 0.37672C17.1164 -0.0279014 13.843 -0.128191 12.2635 0.181976ZM19.2734 1.73318C21.3007 2.41605 22.2041 2.9082 23.849 4.22545C25.944 5.90338 27.7427 8.68467 28.4961 11.4116C28.7378 12.286 28.823 13.2425 28.821 15.0585C28.8182 17.3602 28.7795 17.6326 28.2227 19.2524C26.6594 23.801 23.418 26.9209 18.7208 28.398C17.5688 28.7604 16.9871 28.8244 14.9036 28.8183C12.6113 28.8116 12.329 28.7709 10.7158 28.2148C5.84438 26.5358 2.35234 22.6345 1.35346 17.7557C0.205654 12.1485 2.61562 6.43035 7.46213 3.26176C9.9817 1.61465 12.2735 0.990671 15.4498 1.08695C17.2171 1.14056 17.8135 1.24139 19.2734 1.73318ZM12.2389 2.37266C6.27208 3.73513 2.16461 8.8703 2.16461 14.9673C2.16461 20.4541 5.75971 25.4355 10.9889 27.1944C12.8876 27.833 15.6463 27.9894 17.6347 27.5711C21.9496 26.6636 25.7801 23.224 27.2038 18.9789C28.215 15.9638 27.9816 12.3997 26.5831 9.49701C24.9376 6.08208 22.5193 3.92641 19.0003 2.73807C17.2069 2.13251 14.04 1.96129 12.2389 2.37266ZM14.1753 8.76764V14.3291H8.71299H3.2507V13.9024C3.2507 13.0252 3.99193 10.6195 4.65305 9.35114C5.57309 7.58532 7.62472 5.5314 9.38959 4.60892C10.6436 3.95339 12.8929 3.23751 13.7656 3.21618L14.1753 3.20615V8.76764ZM17.888 3.56573C21.0115 4.36586 23.9124 6.61908 25.3362 9.35114C25.9973 10.6195 26.7386 13.0252 26.7386 13.9024V14.3291H21.0942H15.4498V8.76764V3.20615H15.9669C16.2513 3.20615 17.1158 3.36789 17.888 3.56573ZM14.1753 21.167C14.1753 27.5633 14.4153 26.9615 12.1013 26.3689C7.93698 25.3024 4.67472 22.0353 3.60976 17.865C3.4122 17.0916 3.2507 16.2669 3.2507 16.0322V15.6055H8.71299H14.1753V21.167ZM26.7386 16.0322C26.7386 16.914 25.9961 19.3173 25.3337 20.5797C24.4034 22.3524 22.3476 24.4146 20.6026 25.3252C19.2814 26.0148 16.9235 26.7285 15.9669 26.7285H15.4498V21.167V15.6055H21.0942H26.7386V16.0322Z" fill="black"/>
</svg>
